<?xml version="1.0" standalone="no"?>
<!DOCTYPE svg PUBLIC "-//W3C//DTD SVG 20010904//EN"
 "http://www.w3.org/TR/2001/REC-SVG-20010904/DTD/svg10.dtd">
<svg version="1.0" xmlns="http://www.w3.org/2000/svg"
 width="473.000000pt" height="450.000000pt" viewBox="0 0 473.000000 450.000000"
 preserveAspectRatio="xMidYMid meet">

<g transform="translate(0.000000,450.000000) scale(0.100000,-0.100000)"
fill="#000000" stroke="none">
<path d="M0 2408 l1 -2093 28 75 c16 41 54 132 84 201 31 69 60 145 66 167 7
23 32 84 57 135 24 52 51 121 60 153 20 81 57 153 96 191 30 28 279 161 455
242 82 37 191 101 243 142 19 15 58 40 85 55 28 15 73 41 100 59 28 18 86 52
130 75 44 24 97 54 117 67 21 12 47 23 58 23 25 0 36 22 95 190 26 74 54 146
62 159 l15 23 36 -35 c38 -36 159 -117 175 -117 5 0 -14 18 -41 39 -54 43 -54
44 -72 191 -5 47 -20 114 -34 150 -13 36 -33 117 -45 180 -34 180 -26 163 -72
155 -33 -6 -45 -3 -72 18 -44 33 -77 103 -78 163 0 27 -6 82 -13 123 -11 59
-11 84 -2 115 12 41 46 64 46 32 0 -9 5 -16 11 -16 5 0 7 -5 3 -11 -6 -11 52
-68 71 -69 6 0 15 -10 21 -23 39 -81 58 -108 73 -105 14 3 17 27 21 179 5 192
0 172 76 277 9 12 12 22 6 22 -7 0 -6 13 4 35 8 20 12 40 9 45 -4 6 -2 10 3
10 5 0 12 8 15 19 3 12 18 21 42 25 61 12 109 58 155 152 23 46 45 84 50 84 5
0 20 12 34 26 20 23 35 27 95 32 41 3 97 -1 131 -8 52 -11 63 -11 78 3 9 8 42
18 72 22 49 6 62 3 114 -24 33 -17 69 -31 80 -31 12 0 33 -11 48 -25 15 -14
32 -25 38 -25 5 0 10 -4 10 -9 0 -5 9 -13 20 -16 12 -4 33 -25 47 -48 15 -23
36 -49 46 -58 16 -13 20 -32 24 -105 2 -49 8 -107 13 -129 5 -22 9 -80 10
-130 2 -131 21 -325 31 -319 5 3 9 11 9 19 0 8 5 26 11 42 10 26 12 26 19 8 7
-18 8 -17 15 9 9 33 12 56 14 106 1 27 4 31 11 20 16 -25 11 -103 -10 -165
-11 -32 -20 -80 -20 -107 0 -61 -18 -134 -36 -149 -9 -7 -14 -32 -14 -69 0
-121 -39 -234 -128 -374 -37 -58 -44 -79 -49 -135 l-5 -66 86 -59 c48 -33 123
-97 167 -143 87 -91 84 -84 67 -176 -2 -15 12 -24 77 -47 114 -40 309 -135
381 -186 68 -48 135 -122 213 -236 66 -97 94 -185 146 -458 15 -74 39 -180 55
-235 34 -122 70 -402 70 -555 l0 -110 189 0 188 0 6 28 c4 18 23 42 54 66 52
41 81 43 145 12 17 -9 33 -16 35 -16 1 0 3 391 3 869 l0 869 -47 30 c-27 16
-61 36 -77 43 -40 19 -42 34 -10 64 31 29 62 32 104 10 l30 -16 0 1271 0 1270
-2365 0 -2365 0 0 -2092z m2189 1832 c-8 -5 -38 -15 -66 -23 -43 -13 -53 -13
-53 -3 0 19 80 46 114 38 14 -4 15 -7 5 -12z m165 -99 c-8 -8 -84 -9 -79 -1 2
4 22 7 44 6 22 0 38 -3 35 -5z m-4 -36 c7 -8 8 -15 2 -15 -5 0 -15 7 -22 15
-7 8 -8 15 -2 15 5 0 15 -7 22 -15z m-308 -47 c-17 -34 -27 -47 -30 -36 -3 16
37 88 49 88 3 0 -5 -24 -19 -52z m2025 -770 c16 -15 23 -33 23 -57 0 -46 -28
-62 -80 -45 -41 14 -114 4 -137 -19 -14 -14 -13 -20 16 -63 17 -26 31 -51 31
-56 0 -16 -28 -76 -39 -82 -15 -10 -68 20 -87 50 -15 22 -15 30 -4 65 13 38
12 40 -19 80 -28 34 -32 46 -27 75 12 59 58 72 172 49 21 -5 42 -1 60 9 40 21
64 20 91 -6z m463 -654 c0 -46 -37 -66 -78 -43 -38 21 -40 49 -7 75 23 18 33
20 56 12 24 -8 29 -16 29 -44z m-829 -170 c33 -14 40 -20 35 -38 -3 -12 -6
-24 -6 -28 0 -11 -48 -10 -69 1 -13 7 -16 19 -13 45 2 20 6 36 8 36 2 0 22 -7
45 -16z m-173 -521 c7 -7 19 -13 26 -13 22 0 66 -40 66 -60 0 -36 -68 -41
-135 -9 -52 24 -68 41 -63 66 7 38 74 48 106 16z m1032 -97 c0 -18 -16 -29
-30 -21 -13 8 -1 35 16 35 8 0 14 -6 14 -14z m-46 -1355 c24 -26 17 -65 -11
-69 -13 -2 -23 2 -23 8 0 6 -7 18 -15 26 -27 27 -19 44 26 53 3 0 14 -8 23
-18z m-113 -135 c15 -31 -6 -75 -44 -96 -26 -14 -29 -14 -43 5 -18 24 -12 70
13 97 23 26 61 23 74 -6z"/>
<path d="M2144 3389 c-10 -11 -14 -22 -10 -26 12 -12 147 -16 158 -5 16 16
-40 47 -89 48 -30 1 -47 -4 -59 -17z"/>
<path d="M2280 3401 c0 -5 5 -13 10 -16 6 -3 10 -2 10 4 0 5 -4 13 -10 16 -5
3 -10 2 -10 -4z"/>
<path d="M2698 3388 c-20 -7 -28 -17 -28 -34 0 -31 39 -41 97 -26 24 7 53 12
65 12 20 0 20 0 -3 24 -28 27 -91 39 -131 24z"/>
<path d="M1950 3364 c0 -17 22 -14 28 4 2 7 -3 12 -12 12 -9 0 -16 -7 -16 -16z"/>
<path d="M2865 3359 c-9 -13 -7 -15 28 -23 31 -7 30 7 -3 24 -13 7 -21 7 -25
-1z"/>
<path d="M2934 3359 c-8 -14 18 -31 30 -19 9 9 0 30 -14 30 -5 0 -12 -5 -16
-11z"/>
<path d="M2210 3294 c0 -6 102 -54 115 -54 22 0 19 13 -7 30 -18 12 -108 32
-108 24z"/>
<path d="M2630 3267 c-40 -14 -51 -42 -20 -50 13 -3 18 -10 14 -21 -4 -10 -1
-16 9 -16 9 0 22 -3 31 -6 9 -3 16 -1 16 5 0 6 -7 11 -16 11 -14 0 -14 3 -4
15 16 19 30 19 30 1 0 -20 9 -24 59 -31 37 -4 44 -2 48 15 6 23 35 27 52 6 11
-13 61 -11 61 3 0 12 -29 47 -30 35 0 -8 -12 -7 -42 2 -24 7 -61 16 -82 19
-29 5 -36 9 -25 16 21 13 -59 10 -101 -4z"/>
<path d="M1555 3236 c-8 -40 1 -90 14 -82 8 5 5 105 -4 114 -2 2 -7 -12 -10
-32z"/>
<path d="M2105 3260 c-28 -6 -89 -40 -83 -45 2 -1 15 -5 31 -9 20 -5 27 -3 27
9 0 8 5 15 11 15 5 0 8 -4 5 -9 -11 -16 22 -32 61 -29 28 2 41 9 48 26 8 18
15 22 35 17 14 -4 34 -15 46 -26 24 -23 34 -24 34 -5 0 36 -142 73 -215 56z"/>
<path d="M1660 3140 c-8 -5 -12 -12 -9 -15 4 -3 12 1 19 10 14 17 11 19 -10 5z"/>
<path d="M2202 2714 l-23 -16 41 -30 c22 -17 42 -29 44 -27 1 2 1 23 -2 47 -5
47 -21 54 -60 26z"/>
<path d="M2690 2709 c0 -12 -9 -37 -21 -55 -11 -19 -17 -34 -12 -34 17 1 51
26 76 56 29 34 22 54 -20 54 -17 0 -23 -6 -23 -21z"/>
<path d="M2280 2640 c0 -5 5 -10 11 -10 5 0 7 5 4 10 -3 6 -8 10 -11 10 -2 0
-4 -4 -4 -10z"/>
<path d="M2855 2148 c-9 -29 -26 -275 -24 -369 1 -97 2 -99 23 -93 69 21 105
69 83 111 -10 17 -9 17 10 0 24 -21 33 -14 33 30 0 18 5 33 11 33 7 0 5 10 -6
26 -19 30 -13 43 12 23 12 -9 10 -4 -5 15 -12 16 -22 39 -22 52 0 36 -35 107
-64 129 -14 11 -26 25 -26 32 0 17 -19 26 -25 11z"/>
<path d="M2991 1714 c0 -11 3 -14 6 -6 3 7 2 16 -1 19 -3 4 -6 -2 -5 -13z"/>
<path d="M2976 1645 c-4 -16 -12 -39 -18 -49 -8 -15 -7 -22 8 -33 43 -32 54
-5 30 72 l-13 40 -7 -30z"/>
<path d="M2727 1333 c-3 -5 4 -28 14 -53 11 -25 17 -34 15 -20 -3 14 -6 37 -6
53 0 25 -13 36 -23 20z"/>
<path d="M2872 180 c0 -14 2 -19 5 -12 2 6 2 18 0 25 -3 6 -5 1 -5 -13z"/>
<path d="M1200 40 c0 -22 5 -40 10 -40 6 0 10 6 10 13 0 9 3 8 9 -2 15 -24 19
3 5 37 -19 44 -34 40 -34 -8z"/>
</g>
</svg>
